<svg id="Capa_1" data-name="Capa 1" xmlns="http://www.w3.org/2000/svg" viewBox="0 0 300 100"><defs><style>.cls-1{fill:#fff;}</style></defs><path class="cls-1" d="M67.46,62.31A3.16,3.16,0,0,1,67.85,64a4.91,4.91,0,0,1-1,3.18A18.93,18.93,0,0,1,61.32,72a14,14,0,0,1-6.48,1.38,17.4,17.4,0,0,1-4.91-.66,55.31,55.31,0,0,1-5.48-2,52,52,0,0,0-5.64-2.1A8.41,8.41,0,0,1,31,73.37a7.42,7.42,0,0,1-4.59-1.3,4,4,0,0,1-1.71-3.36,4.92,4.92,0,0,1,2.41-4.17,11,11,0,0,1,6.4-1.66h.66L35.08,48a23.4,23.4,0,0,1,1.84-8.44,16.64,16.64,0,0,1,4.25-5.69,16.28,16.28,0,0,1,5.38-3.1,19.31,19.31,0,0,1,6.4-1c3.68,0,6.52,1,8.5,2.87a9.92,9.92,0,0,1,3,7.48,9.9,9.9,0,0,1-1.13,5A3.47,3.47,0,0,1,60.17,47a3.41,3.41,0,0,1-2.26-.69,2.46,2.46,0,0,1-.82-2,12.05,12.05,0,0,1,.21-1.69,12.76,12.76,0,0,0,.31-2.56,4.6,4.6,0,0,0-1.26-3.41,5.2,5.2,0,0,0-3.81-1.25,8.58,8.58,0,0,0-7,2.94q-2.46,3-3.12,9.25L41.27,59.24a36.56,36.56,0,0,1-.66,4.25c2.18.38,4.91,1,8.19,1.79,1.91.48,3.38.82,4.4,1a14.43,14.43,0,0,0,2.72.3,11.94,11.94,0,0,0,5.09-1,12.36,12.36,0,0,0,4-3.2,1.79,1.79,0,0,1,1.38-.72A1.17,1.17,0,0,1,67.46,62.31Z"/><path class="cls-1" d="M65.16,71.25A9.17,9.17,0,0,1,63.7,66a41,41,0,0,1,2.2-13.83,4.29,4.29,0,0,1,1.44-2.2,5.06,5.06,0,0,1,2.92-.66,2.59,2.59,0,0,1,1.56.35,1.32,1.32,0,0,1,.43,1.08,22.15,22.15,0,0,1-.56,2.76c-.34,1.27-.62,2.41-.82,3.43a48.81,48.81,0,0,0-1,7.17,3.18,3.18,0,0,0,.25,1.51.86.86,0,0,0,.82.44c.51,0,1.15-.51,1.92-1.54A22.15,22.15,0,0,0,75.3,59.8a62.29,62.29,0,0,0,2.53-7.68,4.13,4.13,0,0,1,1.26-2.2,4.07,4.07,0,0,1,2.53-.66,3.36,3.36,0,0,1,1.64.28,1.12,1.12,0,0,1,.46,1.05,48.55,48.55,0,0,1-1.28,7A57.54,57.54,0,0,0,81,65.69a2.4,2.4,0,0,0,.41,1.51,1.28,1.28,0,0,0,1.07.54,4,4,0,0,0,2.44-1.25,43.61,43.61,0,0,0,3.76-4.07,1.79,1.79,0,0,1,1.38-.72,1.17,1.17,0,0,1,1.05.61A3.16,3.16,0,0,1,91.51,64a4.71,4.71,0,0,1-1,3.18,22.37,22.37,0,0,1-4.73,4.45A9.94,9.94,0,0,1,80,73.37a3.91,3.91,0,0,1-3.61-1.89,10.26,10.26,0,0,1-1.16-5.33,12,12,0,0,1-2.61,5.36,5.09,5.09,0,0,1-3.74,1.86A4.39,4.39,0,0,1,65.16,71.25Z"/><path class="cls-1" d="M89.33,70.53A10.23,10.23,0,0,1,86.54,63a15.35,15.35,0,0,1,1.64-7.27A12.43,12.43,0,0,1,92.43,51a9.91,9.91,0,0,1,5.48-1.69,5.74,5.74,0,0,1,4.38,1.66,6,6,0,0,1,1.56,4.28,6.63,6.63,0,0,1-.95,3.63,2.85,2.85,0,0,1-2.48,1.49,2.55,2.55,0,0,1-1.57-.46,1.55,1.55,0,0,1-.58-1.28,3.65,3.65,0,0,1,.1-.82l.15-.67a4.57,4.57,0,0,0,.26-1.43,1.47,1.47,0,0,0-.33-1,1.24,1.24,0,0,0-1-.36,3,3,0,0,0-2.2,1,7.38,7.38,0,0,0-1.64,2.85A12,12,0,0,0,93,62.11c0,4,1.73,5.94,5.17,5.94a9.18,9.18,0,0,0,4.54-1.41,18.61,18.61,0,0,0,4.78-4.22,1.81,1.81,0,0,1,1.39-.72,1.19,1.19,0,0,1,1,.61,3.25,3.25,0,0,1,.38,1.69,5,5,0,0,1-1,3.18,16.64,16.64,0,0,1-5.76,4.58,14.88,14.88,0,0,1-6.48,1.61C93.79,73.37,91.19,72.43,89.33,70.53Z"/><path class="cls-1" d="M107.66,71a11.49,11.49,0,0,1-1.51-6.25,38.53,38.53,0,0,1,.59-5.91,55.88,55.88,0,0,1,1.51-6.74,4.37,4.37,0,0,1,1.23-2.25,3.93,3.93,0,0,1,2.46-.61q2.61,0,2.61,1.74a39.92,39.92,0,0,1-1,5.94,44.2,44.2,0,0,0-1.23,7.63,5.27,5.27,0,0,0,.41,2.35,1.41,1.41,0,0,0,1.38.82,3.85,3.85,0,0,0,2.3-1.28,43.39,43.39,0,0,0,3.69-4,1.79,1.79,0,0,1,1.38-.72,1.17,1.17,0,0,1,1,.61A3.16,3.16,0,0,1,123,64a4.76,4.76,0,0,1-1,3.18q-5.07,6.19-9.48,6.19A5.32,5.32,0,0,1,107.66,71Zm3.48-25.68a1.82,1.82,0,0,1-.53-1.31,2.7,2.7,0,0,1,.25-1l4.77-10.65a3.32,3.32,0,0,1,1.2-1.51,2.91,2.91,0,0,1,1.66-.49,3.27,3.27,0,0,1,2.28.92,3,3,0,0,1,1,2.31,4.63,4.63,0,0,1-1.13,2.86L114,45a2,2,0,0,1-1.64.88A1.73,1.73,0,0,1,111.14,45.34Z"/><path class="cls-1" d="M120,71.07a9.49,9.49,0,0,1-1.82-6,16.7,16.7,0,0,1,1.9-7.76,16.18,16.18,0,0,1,5-5.89,11.43,11.43,0,0,1,6.69-2.23,2,2,0,0,1,1.51.44,3.74,3.74,0,0,1,.64,1.56,10.14,10.14,0,0,1,2.15-.2,2.67,2.67,0,0,1,1.89.61,2.23,2.23,0,0,1,.67,1.74,28,28,0,0,1-.51,4.1q-.57,3.12-.87,6a58.48,58.48,0,0,0-.31,6.38,4,4,0,0,1-.8,2.79,3.42,3.42,0,0,1-2.58.84,3.56,3.56,0,0,1-2.59-.84,3.78,3.78,0,0,1-.84-2.74l0-.82c-1.06,2.94-2.89,4.4-5.48,4.4A5.74,5.74,0,0,1,120,71.07Zm9.35-4.87a23.86,23.86,0,0,0,2.1-7.11l1-5.17a6,6,0,0,0-3.89,1.61,11,11,0,0,0-2.87,4.12,13.84,13.84,0,0,0-1.07,5.43,3.91,3.91,0,0,0,.58,2.33,1.87,1.87,0,0,0,1.57.79C127.64,68.2,128.51,67.54,129.3,66.2Z"/><path class="cls-1" d="M190.59,70.7a11.41,11.41,0,0,1-1.51-6.25,37.41,37.41,0,0,1,.59-5.91,53.46,53.46,0,0,1,1.51-6.73,4.23,4.23,0,0,1,1.23-2.26,3.92,3.92,0,0,1,2.45-.61c1.75,0,2.62.58,2.62,1.74a40.5,40.5,0,0,1-1,5.94,44.34,44.34,0,0,0-1.23,7.63,5.49,5.49,0,0,0,.41,2.36,1.44,1.44,0,0,0,1.39.81,3.82,3.82,0,0,0,2.3-1.28,46.41,46.41,0,0,0,3.69-4,1.79,1.79,0,0,1,1.38-.72,1.2,1.2,0,0,1,1.05.62,3.14,3.14,0,0,1,.38,1.69,4.69,4.69,0,0,1-1,3.17q-5.07,6.19-9.47,6.2A5.32,5.32,0,0,1,190.59,70.7Zm2-26.14a3.62,3.62,0,0,1-1.07-2.79,3.78,3.78,0,0,1,1.4-3,5.23,5.23,0,0,1,3.51-1.2,4.86,4.86,0,0,1,3.07.92,3.12,3.12,0,0,1,1.18,2.61,4.18,4.18,0,0,1-1.33,3.26,5.09,5.09,0,0,1-3.53,1.2A4.58,4.58,0,0,1,192.61,44.56Z"/><path class="cls-1" d="M225.61,62a3.13,3.13,0,0,1,.39,1.69,4.75,4.75,0,0,1-1,3.17,18.59,18.59,0,0,1-5.36,4.25,14.81,14.81,0,0,1-7.4,2c-3.58,0-6.36-1-8.34-2.92a10.7,10.7,0,0,1-3-8,14.8,14.8,0,0,1,1.48-6.58,12.27,12.27,0,0,1,4.12-4.84,10.42,10.42,0,0,1,6-1.79,6.47,6.47,0,0,1,4.76,1.77,6.38,6.38,0,0,1,1.8,4.78,8.28,8.28,0,0,1-2.54,6.07q-2.53,2.53-8.58,4,1.29,2.36,4.87,2.36a11.21,11.21,0,0,0,5.25-1.62,17.22,17.22,0,0,0,5.09-4.22,1.79,1.79,0,0,1,1.38-.72A1.17,1.17,0,0,1,225.61,62Zm-17.15-5.84a10.26,10.26,0,0,0-1.31,5.32v.11a11.8,11.8,0,0,0,4.77-2.15,4.24,4.24,0,0,0,1.74-3.33,2.21,2.21,0,0,0-.54-1.56,1.86,1.86,0,0,0-1.46-.59A3.75,3.75,0,0,0,208.46,56.16Z"/><path class="cls-1" d="M222.75,71a19.6,19.6,0,0,1-.8-6.56,41.46,41.46,0,0,1,1.9-12.64,3.82,3.82,0,0,1,1.51-2.18,5.33,5.33,0,0,1,2.94-.69,3,3,0,0,1,1.44.25,1.09,1.09,0,0,1,.41,1,19.81,19.81,0,0,1-.77,3.68c-.34,1.37-.62,2.56-.82,3.59a33.76,33.76,0,0,0-.51,3.79,28.76,28.76,0,0,1,3.79-7.17A14.8,14.8,0,0,1,236,50.12a7.44,7.44,0,0,1,3.71-1.18q3.33,0,3.33,3.33a25,25,0,0,1-.46,3.22,19.6,19.6,0,0,0-.41,2.56c0,1.2.43,1.8,1.28,1.8s2.18-.75,3.69-2.26a2,2,0,0,1,1.38-.66,1.19,1.19,0,0,1,1.05.59,2.86,2.86,0,0,1,.38,1.56,4.15,4.15,0,0,1-1,3,14,14,0,0,1-3.36,2.53,8.34,8.34,0,0,1-4.07,1,5.65,5.65,0,0,1-4.12-1.38,5,5,0,0,1-1.41-3.74,7.23,7.23,0,0,1,.16-1.53c.06-.69.1-1.15.1-1.39,0-.54-.19-.82-.56-.82s-1.19.57-2,1.72A24.27,24.27,0,0,0,231.12,63a36.68,36.68,0,0,0-2,5.94,7.92,7.92,0,0,1-1.3,3.25,2.94,2.94,0,0,1-2.33.85A2.79,2.79,0,0,1,222.75,71Z"/><path class="cls-1" d="M246.3,70.75a9.47,9.47,0,0,1-1.82-6,16.7,16.7,0,0,1,1.9-7.76,16.18,16.18,0,0,1,5-5.89,11.41,11.41,0,0,1,6.69-2.22,2,2,0,0,1,1.51.43,3.74,3.74,0,0,1,.64,1.56,10.85,10.85,0,0,1,2.15-.2,2.67,2.67,0,0,1,1.89.61A2.23,2.23,0,0,1,265,53a28,28,0,0,1-.51,4.1q-.57,3.12-.88,6a61.09,61.09,0,0,0-.3,6.37,4,4,0,0,1-.8,2.79,3.38,3.38,0,0,1-2.58.85,3.5,3.5,0,0,1-2.59-.85,3.76,3.76,0,0,1-.84-2.74l0-.82q-1.59,4.41-5.48,4.41A5.74,5.74,0,0,1,246.3,70.75Zm9.35-4.86a24,24,0,0,0,2.1-7.12l1-5.17a6,6,0,0,0-3.89,1.61A11,11,0,0,0,252,59.33a13.84,13.84,0,0,0-1.07,5.43,3.89,3.89,0,0,0,.58,2.33,1.88,1.88,0,0,0,1.57.8C254,67.89,254.86,67.22,255.65,65.89Z"/><path class="cls-1" d="M192.57,50a2.08,2.08,0,0,0-1.47-.54,31.83,31.83,0,0,1-5.38-.73,32.58,32.58,0,0,0,2.92-11.07A8.68,8.68,0,0,0,187.31,32a5.55,5.55,0,0,0-4.41-2.33,7.62,7.62,0,0,0-4.29,1,7.94,7.94,0,0,0-3.21,3.45,14.45,14.45,0,0,0-1.46,5.9,13.57,13.57,0,0,0,1,6.31,11.22,11.22,0,0,0,3.84,4.64q-.53,1-1.08,1.89a33.64,33.64,0,0,1,4.73,2.36c.41-.66.81-1.33,1.19-2a26.19,26.19,0,0,0,6.31.92,2.68,2.68,0,0,0,2.22-.81,3.28,3.28,0,0,0,.82-2A1.55,1.55,0,0,0,192.57,50Zm-11.68-3.49c-1.79-1.51-2.6-3.73-2.42-6.64a8.51,8.51,0,0,1,1-3.95,2.24,2.24,0,0,1,2.05-1.29,1.51,1.51,0,0,1,1.29.95,5.84,5.84,0,0,1,.32,2.78A26.32,26.32,0,0,1,180.89,46.55Z"/><path class="cls-1" d="M157.13,37.4c-1.81-1.95-2.42-5.57.29-7.2,3.34-2,5.9,1.5,6.07,4.51.27,4.72-1.26,9.76-2.06,14.38-.86,4.95-2,9.93-2.6,14.91-.34,2.82-.18,5.79,2.14,7.78,4.66,4,9.93.16,12.91-3.7a164.48,164.48,0,0,0,11.75-18.26c2-3.4-3.29-6.46-5.26-3.07-.18.3-.35.59-.51.89-2,3.41,3.31,6.48,5.26,3.08q.24-.45.51-.9l-5.26-3.07c-1.63,2.83-3.38,5.59-5.12,8.35-1.37,2.16-6.31,12.45-9.43,12.21-2.19-.16,1.32-15.68,1.64-17.53.85-4.88,2.29-10.07,2.12-15.07-.24-7.26-6.27-13.22-13.72-10.44s-8,12.09-3,17.44c2.67,2.88,7-1.43,4.31-4.31Z"/></svg>