<svg id="Capa_1" data-name="Capa 1" xmlns="http://www.w3.org/2000/svg" viewBox="0 0 300 100"><defs><style>.cls-1{fill:#fff;}</style></defs><path class="cls-1" d="M125.37,94a11.07,11.07,0,0,1-1.47-6.06,37,37,0,0,1,.57-5.73,52.42,52.42,0,0,1,1.47-6.53,4.16,4.16,0,0,1,1.19-2.19,3.85,3.85,0,0,1,2.38-.59c1.69,0,2.53.56,2.53,1.69a38.64,38.64,0,0,1-.94,5.75,43.35,43.35,0,0,0-1.19,7.4,5.12,5.12,0,0,0,.4,2.28,1.38,1.38,0,0,0,1.34.8,3.77,3.77,0,0,0,2.23-1.24,46.66,46.66,0,0,0,3.57-3.92,1.74,1.74,0,0,1,1.34-.7,1.15,1.15,0,0,1,1,.6,3,3,0,0,1,.37,1.63,4.54,4.54,0,0,1-.94,3.08q-4.92,6-9.18,6A5.15,5.15,0,0,1,125.37,94Zm2-25.35a3.47,3.47,0,0,1-1-2.7A3.68,3.68,0,0,1,127.65,63a5.08,5.08,0,0,1,3.4-1.16,4.74,4.74,0,0,1,3,.89,3,3,0,0,1,1.14,2.53,4,4,0,0,1-1.29,3.15,4.9,4.9,0,0,1-3.43,1.17A4.4,4.4,0,0,1,127.33,68.62Z"/><path class="cls-1" d="M159.32,85.53a3,3,0,0,1,.37,1.63,4.54,4.54,0,0,1-.94,3.08,18,18,0,0,1-5.19,4.12,14.34,14.34,0,0,1-7.17,1.89c-3.48,0-6.17-.94-8.09-2.83a10.37,10.37,0,0,1-2.88-7.74,14.35,14.35,0,0,1,1.44-6.38,11.84,11.84,0,0,1,4-4.7,10.14,10.14,0,0,1,5.79-1.73,6.28,6.28,0,0,1,4.61,1.71A6.21,6.21,0,0,1,153,79.22a8,8,0,0,1-2.46,5.88c-1.63,1.64-4.41,2.94-8.31,3.9q1.25,2.28,4.71,2.28A10.87,10.87,0,0,0,152,89.72,16.78,16.78,0,0,0,157,85.63a1.74,1.74,0,0,1,1.34-.7A1.15,1.15,0,0,1,159.32,85.53Zm-16.63-5.66A10,10,0,0,0,141.42,85v.1A11.14,11.14,0,0,0,146,83a4.07,4.07,0,0,0,1.69-3.22,2.16,2.16,0,0,0-.52-1.52,1.83,1.83,0,0,0-1.42-.57A3.63,3.63,0,0,0,142.69,79.87Z"/><path class="cls-1" d="M156.54,94.26a19.07,19.07,0,0,1-.77-6.35,40.25,40.25,0,0,1,1.84-12.26,3.71,3.71,0,0,1,1.46-2.11,5.15,5.15,0,0,1,2.86-.67,2.76,2.76,0,0,1,1.39.25,1,1,0,0,1,.39.94,19.24,19.24,0,0,1-.74,3.57c-.33,1.33-.6,2.49-.8,3.48s-.36,2.22-.49,3.67a28.22,28.22,0,0,1,3.67-7,14.34,14.34,0,0,1,4-3.82,7.23,7.23,0,0,1,3.6-1.14q3.23,0,3.22,3.22a25.91,25.91,0,0,1-.44,3.13,17.77,17.77,0,0,0-.4,2.48c0,1.16.41,1.74,1.24,1.74s2.12-.73,3.57-2.18a1.91,1.91,0,0,1,1.34-.65,1.16,1.16,0,0,1,1,.57,2.74,2.74,0,0,1,.37,1.52,4,4,0,0,1-1,2.88A13.28,13.28,0,0,1,178.63,88a8.1,8.1,0,0,1-3.95,1,5.48,5.48,0,0,1-4-1.34,4.84,4.84,0,0,1-1.37-3.62,7.46,7.46,0,0,1,.15-1.49c.07-.66.1-1.11.1-1.34,0-.53-.18-.8-.54-.8s-1.16.56-2,1.67a23.17,23.17,0,0,0-2.4,4.39,35.43,35.43,0,0,0-1.94,5.76,7.72,7.72,0,0,1-1.27,3.15,2.83,2.83,0,0,1-2.25.82A2.71,2.71,0,0,1,156.54,94.26Z"/><path class="cls-1" d="M179.37,94a9.23,9.23,0,0,1-1.76-5.86,16,16,0,0,1,1.84-7.52,15.57,15.57,0,0,1,4.89-5.71,11,11,0,0,1,6.48-2.16,1.94,1.94,0,0,1,1.46.42,3.49,3.49,0,0,1,.62,1.51,10.33,10.33,0,0,1,2.09-.19,2.58,2.58,0,0,1,1.83.59,2.19,2.19,0,0,1,.65,1.69,27.34,27.34,0,0,1-.5,4q-.54,3-.84,5.78a57.6,57.6,0,0,0-.3,6.18,3.92,3.92,0,0,1-.77,2.71,3.3,3.3,0,0,1-2.51.82,3.38,3.38,0,0,1-2.5-.82,3.64,3.64,0,0,1-.82-2.66l.05-.79q-1.54,4.27-5.31,4.27A5.61,5.61,0,0,1,179.37,94Zm9.06-4.72a22.7,22.7,0,0,0,2-6.9l.94-5A5.85,5.85,0,0,0,187.64,79a10.61,10.61,0,0,0-2.78,4,13.39,13.39,0,0,0-1,5.27,3.79,3.79,0,0,0,.57,2.26,1.79,1.79,0,0,0,1.51.77C186.83,91.24,187.67,90.59,188.43,89.3Z"/><path class="cls-1" d="M127.29,73.94a2.05,2.05,0,0,0-1.43-.52,31.87,31.87,0,0,1-5.21-.71A32,32,0,0,0,123.48,62a8.44,8.44,0,0,0-1.29-5.56,5.4,5.4,0,0,0-4.28-2.25,7.46,7.46,0,0,0-4.16.92,7.81,7.81,0,0,0-3.11,3.35,14.13,14.13,0,0,0-1.41,5.71,13,13,0,0,0,1,6.12,10.76,10.76,0,0,0,3.72,4.5q-.51,1-1,1.83a32.2,32.2,0,0,1,4.59,2.29c.39-.64.78-1.29,1.15-2a25.35,25.35,0,0,0,6.12.89,2.59,2.59,0,0,0,2.15-.78,3.15,3.15,0,0,0,.79-2A1.48,1.48,0,0,0,127.29,73.94ZM116,70.55c-1.73-1.46-2.52-3.61-2.34-6.44a8.25,8.25,0,0,1,1-3.83,2.15,2.15,0,0,1,2-1.24,1.44,1.44,0,0,1,1.25.92,5.73,5.73,0,0,1,.32,2.69A25.58,25.58,0,0,1,116,70.55Z"/><path class="cls-1" d="M92.93,61.69c-5.22-5.64,5.17-11.61,6.17-2.61.52,4.66-1.34,10.12-2.13,14.69-.83,4.77-2.09,9.66-2.5,14.49-.21,2.63.27,5.28,2.49,7,4.69,3.58,9.6-.35,12.44-4.12a170.08,170.08,0,0,0,11.16-17.39c1.9-3.3-3.19-6.27-5.1-3-.17.28-.33.57-.5.86-1.89,3.31,3.21,6.28,5.1,3,.16-.29.33-.58.5-.86l-5.1-3c-1.58,2.74-3.28,5.42-5,8.09-1.34,2.13-5.79,11.49-8.69,11.65-2.71.14-.6-6.76-.33-8.3L103,73.38c.84-4.82,2.33-10.06,2-15-.54-7-6.63-12.18-13.6-9.28s-7.29,11.69-2.6,16.76c2.59,2.8,6.76-1.39,4.18-4.17Z"/><path class="cls-1" d="M124.73,35.37a3.09,3.09,0,0,1,.38,1.64,4.69,4.69,0,0,1-1,3.08,18.41,18.41,0,0,1-5.38,4.67,13.64,13.64,0,0,1-6.28,1.34,16.82,16.82,0,0,1-4.77-.65,55.25,55.25,0,0,1-5.31-1.94,50.71,50.71,0,0,0-5.46-2,8.17,8.17,0,0,1-7.6,4.62,7.18,7.18,0,0,1-4.44-1.27,3.9,3.9,0,0,1-1.66-3.25,4.81,4.81,0,0,1,2.33-4,10.77,10.77,0,0,1,6.21-1.61h.64l.89-14.45a23,23,0,0,1,1.79-8.19,16.19,16.19,0,0,1,4.12-5.51,15.81,15.81,0,0,1,5.21-3,18.81,18.81,0,0,1,6.21-1q5.36,0,8.24,2.78a9.62,9.62,0,0,1,2.88,7.25,9.68,9.68,0,0,1-1.09,4.89,3.37,3.37,0,0,1-3,1.86,3.28,3.28,0,0,1-2.19-.67,2.39,2.39,0,0,1-.79-1.91,12.39,12.39,0,0,1,.2-1.64,11.9,11.9,0,0,0,.3-2.48,4.46,4.46,0,0,0-1.22-3.3,5,5,0,0,0-3.7-1.22,8.29,8.29,0,0,0-6.75,2.86q-2.39,2.85-3,9L99.34,32.39a34.67,34.67,0,0,1-.64,4.12q3.17.56,7.94,1.74c1.85.47,3.27.8,4.27,1a14.22,14.22,0,0,0,2.63.29,11.49,11.49,0,0,0,4.94-1,11.69,11.69,0,0,0,3.89-3.1,1.76,1.76,0,0,1,1.35-.69A1.15,1.15,0,0,1,124.73,35.37Z"/><path class="cls-1" d="M122.5,44a8.86,8.86,0,0,1-1.42-5.13,43.53,43.53,0,0,1,.5-6.83,43,43,0,0,1,1.64-6.58,4.12,4.12,0,0,1,1.39-2.13,4.88,4.88,0,0,1,2.83-.65,2.44,2.44,0,0,1,1.51.35,1.27,1.27,0,0,1,.42,1,20.55,20.55,0,0,1-.54,2.68c-.33,1.23-.6,2.34-.8,3.33a47.14,47.14,0,0,0-1,7,3,3,0,0,0,.25,1.46.83.83,0,0,0,.79.43c.5,0,1.12-.5,1.86-1.49a22.08,22.08,0,0,0,2.39-4.52,60.3,60.3,0,0,0,2.45-7.45A4,4,0,0,1,136,23.36a4,4,0,0,1,2.46-.65,3.3,3.3,0,0,1,1.59.28,1.11,1.11,0,0,1,.44,1,47.87,47.87,0,0,1-1.24,6.8,56,56,0,0,0-1.39,7.84,2.31,2.31,0,0,0,.4,1.46,1.23,1.23,0,0,0,1,.52,3.88,3.88,0,0,0,2.36-1.21,39.6,39.6,0,0,0,3.65-4,1.74,1.74,0,0,1,1.34-.69,1.16,1.16,0,0,1,1,.59A3.09,3.09,0,0,1,148,37a4.61,4.61,0,0,1-.94,3.08,22.37,22.37,0,0,1-4.6,4.32,9.65,9.65,0,0,1-5.58,1.69,3.81,3.81,0,0,1-3.5-1.84,10,10,0,0,1-1.12-5.16,11.48,11.48,0,0,1-2.53,5.18,4.92,4.92,0,0,1-3.62,1.82A4.26,4.26,0,0,1,122.5,44Z"/><path class="cls-1" d="M145.93,43.34a9.91,9.91,0,0,1-2.71-7.27,15,15,0,0,1,1.59-7,12.08,12.08,0,0,1,4.12-4.67,9.66,9.66,0,0,1,5.31-1.64,5.54,5.54,0,0,1,4.25,1.62A5.78,5.78,0,0,1,160,28.47a6.38,6.38,0,0,1-.92,3.53,2.75,2.75,0,0,1-2.4,1.44,2.39,2.39,0,0,1-1.52-.45,1.49,1.49,0,0,1-.57-1.24,3.56,3.56,0,0,1,.1-.8l.15-.64a4.6,4.6,0,0,0,.25-1.39,1.42,1.42,0,0,0-.32-1,1.22,1.22,0,0,0-.92-.35,3,3,0,0,0-2.14,1,7.21,7.21,0,0,0-1.59,2.75,11.91,11.91,0,0,0-.59,3.82q0,5.76,5,5.76a8.89,8.89,0,0,0,4.4-1.36,18.09,18.09,0,0,0,4.64-4.1,1.73,1.73,0,0,1,1.34-.69,1.13,1.13,0,0,1,1,.59,3.09,3.09,0,0,1,.38,1.64,4.82,4.82,0,0,1-.95,3.08,16,16,0,0,1-5.58,4.44,14.51,14.51,0,0,1-6.28,1.57C150.26,46.1,147.73,45.18,145.93,43.34Z"/><path class="cls-1" d="M163.7,43.81a11,11,0,0,1-1.46-6.05,37.26,37.26,0,0,1,.57-5.74,54.76,54.76,0,0,1,1.46-6.53,4.3,4.3,0,0,1,1.19-2.18,3.81,3.81,0,0,1,2.39-.6c1.68,0,2.53.57,2.53,1.69a39.06,39.06,0,0,1-.95,5.76,43.35,43.35,0,0,0-1.19,7.4,5.15,5.15,0,0,0,.4,2.28,1.37,1.37,0,0,0,1.34.79,3.69,3.69,0,0,0,2.23-1.24,42,42,0,0,0,3.58-3.92,1.74,1.74,0,0,1,1.34-.69,1.16,1.16,0,0,1,1,.59,3.19,3.19,0,0,1,.37,1.64,4.61,4.61,0,0,1-.94,3.08q-4.92,6-9.19,6A5.17,5.17,0,0,1,163.7,43.81Zm3.38-24.89a1.73,1.73,0,0,1-.53-1.27,2.74,2.74,0,0,1,.25-.94l4.62-10.33a3.3,3.3,0,0,1,1.17-1.46,2.81,2.81,0,0,1,1.61-.47,3.15,3.15,0,0,1,2.21.89,2.94,2.94,0,0,1,1,2.23,4.48,4.48,0,0,1-1.1,2.78l-6.4,8.24a1.92,1.92,0,0,1-1.59.85A1.67,1.67,0,0,1,167.08,18.92Z"/><path class="cls-1" d="M175.61,43.86A9.21,9.21,0,0,1,173.85,38a16.11,16.11,0,0,1,1.84-7.52,15.65,15.65,0,0,1,4.89-5.71,11,11,0,0,1,6.48-2.16,1.94,1.94,0,0,1,1.46.43,3.44,3.44,0,0,1,.62,1.51,10.3,10.3,0,0,1,2.09-.2,2.59,2.59,0,0,1,1.83.6,2.18,2.18,0,0,1,.65,1.69,27.34,27.34,0,0,1-.5,4c-.36,2-.64,3.94-.84,5.78a57.6,57.6,0,0,0-.3,6.18,3.92,3.92,0,0,1-.77,2.71,3.34,3.34,0,0,1-2.51.82,3.42,3.42,0,0,1-2.5-.82,3.65,3.65,0,0,1-.82-2.66l.05-.79c-1,2.84-2.8,4.27-5.31,4.27A5.6,5.6,0,0,1,175.61,43.86Zm9.06-4.71a23.07,23.07,0,0,0,2-6.91l.94-5a5.88,5.88,0,0,0-3.77,1.56,10.65,10.65,0,0,0-2.78,4,13.38,13.38,0,0,0-1,5.26,3.75,3.75,0,0,0,.57,2.26,1.77,1.77,0,0,0,1.51.77C183.07,41.08,183.91,40.44,184.67,39.15Z"/></svg>